<?xml version="1.0" standalone="no"?>
<!DOCTYPE svg PUBLIC "-//W3C//DTD SVG 20010904//EN"
 "http://www.w3.org/TR/2001/REC-SVG-20010904/DTD/svg10.dtd">
<svg version="1.0" xmlns="http://www.w3.org/2000/svg"
 width="626.000000pt" height="626.000000pt" viewBox="0 0 626.000000 626.000000"
 preserveAspectRatio="xMidYMid meet">

<g transform="translate(0.000000,626.000000) scale(0.100000,-0.100000)"
fill="#000000" stroke="none">
<path d="M1166 5315 c-21 -23 -36 -64 -36 -101 0 -8 9 -14 20 -14 16 0 20 7
20 30 0 42 41 83 71 72 33 -12 59 -69 59 -126 0 -43 -4 -53 -35 -82 -37 -35
-43 -55 -21 -73 17 -14 46 -4 46 16 0 8 10 28 21 45 44 61 33 176 -21 230 -38
37 -91 39 -124 3z"/>
<path d="M1401 5316 c-29 -31 -42 -116 -18 -116 9 0 17 13 21 35 19 99 113 81
131 -25 9 -52 -9 -105 -46 -131 -33 -23 -37 -44 -11 -58 21 -11 52 3 52 25 0
9 9 27 20 41 24 31 28 126 6 177 -30 72 -111 99 -155 52z"/>
<path d="M1636 5315 c-21 -23 -36 -64 -36 -101 0 -8 9 -14 20 -14 16 0 20 7
20 30 0 19 9 40 25 55 21 22 27 23 49 14 33 -15 56 -66 56 -124 0 -41 -5 -52
-35 -81 -37 -35 -43 -55 -21 -73 17 -14 46 -4 46 15 0 8 9 28 21 43 44 59 33
179 -21 233 -38 37 -91 39 -124 3z"/>
<path d="M1875 5317 c-20 -17 -28 -35 -32 -70 -7 -64 18 -65 35 -2 15 56 43
74 79 50 69 -46 69 -173 -1 -219 -31 -20 -33 -41 -5 -56 23 -13 49 2 49 27 0
7 9 26 21 42 41 55 23 179 -32 226 -38 31 -80 32 -114 2z"/>
<path d="M2117 5328 c-19 -15 -47 -78 -47 -108 0 -13 7 -20 19 -20 14 0 20 10
25 40 12 76 76 88 111 19 33 -63 16 -152 -35 -179 -23 -12 -26 -42 -6 -59 17
-14 46 -4 46 15 0 8 10 28 21 44 46 62 31 194 -28 240 -29 23 -81 26 -106 8z"/>
<path d="M2357 5329 c-24 -14 -47 -62 -47 -99 0 -43 27 -40 35 4 7 32 37 76
53 76 19 0 55 -36 68 -66 27 -66 11 -134 -40 -168 -31 -20 -33 -41 -5 -56 23
-13 49 2 49 27 0 7 10 27 22 43 27 37 29 129 5 177 -32 62 -93 89 -140 62z"/>
<path d="M2588 5326 c-21 -15 -48 -76 -48 -106 0 -13 7 -20 19 -20 14 0 20 10
25 39 18 112 126 67 126 -51 0 -58 -15 -92 -46 -107 -26 -12 -32 -42 -10 -60
17 -14 46 -4 46 15 0 8 10 28 21 44 46 62 31 194 -28 240 -29 23 -80 26 -105
6z"/>
<path d="M2827 5329 c-24 -14 -47 -62 -47 -99 0 -43 27 -40 35 4 7 32 37 76
53 76 19 0 55 -36 68 -66 28 -66 15 -119 -38 -164 -30 -27 -31 -53 -1 -64 18
-7 43 10 43 31 0 7 10 27 22 43 16 22 21 44 21 87 0 116 -81 195 -156 152z"/>
<path d="M3052 5318 c-41 -45 -56 -118 -23 -118 14 0 20 10 25 39 12 74 72 86
109 23 35 -60 20 -158 -29 -180 -26 -13 -32 -43 -10 -61 17 -14 46 -4 46 15 0
8 10 28 21 44 46 62 31 194 -28 240 -35 27 -84 26 -111 -2z"/>
<path d="M3297 5329 c-24 -14 -47 -62 -47 -99 0 -43 27 -40 36 5 3 20 17 44
32 55 22 18 28 19 46 7 36 -24 58 -76 53 -132 -4 -42 -10 -54 -41 -80 -38 -32
-41 -57 -9 -70 20 -7 26 -2 57 57 33 62 40 106 26 158 -22 82 -98 131 -153 99z"/>
<path d="M3522 5317 c-21 -22 -42 -75 -42 -104 0 -7 8 -13 19 -13 14 0 20 10
25 39 12 75 72 86 110 22 37 -64 17 -171 -34 -184 -23 -6 -27 -39 -6 -56 14
-12 45 -5 47 10 3 20 5 25 23 52 43 64 26 192 -31 237 -35 27 -84 26 -111 -3z"/>
<path d="M3767 5329 c-37 -22 -64 -129 -32 -129 8 0 19 16 25 38 5 22 19 47
30 57 18 17 21 17 46 1 32 -22 54 -73 54 -127 0 -36 -6 -47 -40 -79 -41 -38
-45 -62 -13 -74 21 -9 27 -3 59 61 46 89 35 184 -28 243 -24 22 -72 26 -101 9z"/>
<path d="M4465 5255 c-45 -24 -83 -64 -122 -126 -19 -31 -52 -71 -72 -87 -43
-35 -72 -87 -70 -129 1 -26 2 -25 8 7 9 42 24 72 46 90 13 11 12 6 -3 -21 -34
-57 -32 -116 3 -156 20 -23 24 -25 25 -10 0 15 5 12 26 -13 27 -32 73 -60 97
-60 7 0 20 11 27 25 12 22 10 27 -18 53 -42 39 -53 72 -53 155 0 52 5 80 23
115 28 56 42 62 57 24 17 -41 64 -73 111 -75 35 -2 39 0 34 17 -5 14 6 9 39
-19 25 -21 48 -47 51 -58 5 -19 6 -19 31 -3 53 35 73 -7 34 -70 -11 -19 -28
-34 -38 -34 -9 0 -30 -14 -47 -31 -16 -17 -44 -38 -62 -46 -34 -14 -57 -10
-46 9 4 7 2 8 -4 4 -7 -4 -22 0 -34 8 -28 20 -44 20 -52 1 -3 -10 7 -23 30
-38 23 -15 33 -28 30 -39 -11 -48 98 18 142 85 l27 41 6 -50 c3 -27 4 -52 2
-56 -2 -4 7 -10 21 -14 29 -7 71 14 109 54 35 38 39 116 7 153 -23 29 -25 23
-5 -24 8 -20 15 -47 14 -59 0 -13 -9 4 -19 36 -10 33 -17 63 -15 66 2 4 -7 28
-20 55 -14 27 -25 61 -25 77 0 51 -37 108 -84 129 -62 27 -173 35 -211 14z
m45 -187 c0 -13 -5 -9 -31 19 l-24 26 27 -19 c15 -10 28 -22 28 -26z"/>
<path d="M4395 5060 c-3 -5 1 -10 9 -10 9 0 16 5 16 10 0 6 -4 10 -9 10 -6 0
-13 -4 -16 -10z"/>
<path d="M4433 5028 c-6 -18 -11 -25 -12 -15 -1 10 -9 17 -21 17 -26 0 -25
-15 1 -34 15 -10 20 -21 16 -35 -3 -12 -1 -21 4 -21 5 0 9 -7 9 -15 0 -9 9
-15 23 -14 15 1 17 3 5 6 -23 6 -32 56 -18 99 7 19 10 37 7 40 -2 2 -9 -10
-14 -28z"/>
<path d="M4506 5013 c-11 -12 -6 -33 8 -33 19 0 28 27 11 33 -7 3 -16 3 -19 0z"/>
<path d="M4714 4962 c-11 -7 -34 -46 -34 -58 0 -3 7 -1 15 6 9 7 13 15 10 18
-3 3 2 14 12 24 17 19 16 23 -3 10z"/>
<path d="M1830 4710 c0 -5 8 -10 19 -10 15 0 20 -12 28 -62 l10 -63 2 63 c1
55 3 62 21 62 11 0 20 5 20 10 0 6 -22 10 -50 10 -27 0 -50 -4 -50 -10z"/>
<path d="M1970 4656 c0 -36 5 -68 10 -71 6 -4 10 7 10 24 0 28 3 31 30 31 27
0 30 -3 30 -30 0 -16 5 -30 11 -30 8 0 9 17 5 53 -3 28 -6 60 -6 70 0 10 -4
16 -9 13 -4 -3 -6 -17 -3 -31 4 -22 1 -25 -27 -25 -28 0 -31 3 -31 30 0 17 -4
30 -10 30 -6 0 -10 -28 -10 -64z"/>
<path d="M2109 4715 c-8 -15 5 -142 13 -129 4 6 4 40 0 75 -4 35 -10 60 -13
54z"/>
<path d="M2168 4714 c-3 -5 -2 -38 2 -74 8 -69 13 -71 11 -5 l-1 40 35 -40
c19 -22 35 -43 35 -47 0 -5 5 -8 10 -8 6 0 10 28 10 64 0 36 -4 68 -10 71 -6
4 -10 -12 -10 -42 l-1 -48 -19 23 c-11 13 -28 35 -38 49 -11 14 -21 22 -24 17z"/>
<path d="M2321 4694 c-25 -32 -25 -37 -6 -73 21 -42 64 -54 99 -28 26 19 12
67 -20 67 -13 0 -24 -4 -24 -10 0 -5 6 -10 14 -10 20 0 31 -19 18 -32 -17 -17
-62 0 -74 27 -17 37 14 69 60 61 23 -3 32 -1 29 7 -2 7 -20 13 -39 15 -29 2
-40 -2 -57 -24z"/>
<path d="M2481 4706 c-16 -19 -8 -44 16 -52 10 -3 29 -10 42 -15 23 -9 23 -11
8 -27 -14 -14 -22 -14 -47 -5 -36 14 -41 -3 -5 -19 32 -14 75 3 75 31 0 22
-16 36 -52 45 -29 7 -38 31 -15 39 6 2 23 0 35 -5 18 -6 23 -5 20 4 -7 19 -63
22 -77 4z"/>
<path d="M2655 4710 c-4 -6 5 -10 19 -10 25 0 26 -2 26 -60 0 -36 4 -60 11
-60 6 0 9 22 8 58 -3 52 -1 57 19 60 12 2 22 8 22 13 0 12 -97 12 -105 -1z"/>
<path d="M2796 4698 c-24 -34 -20 -73 10 -97 15 -12 35 -21 45 -21 29 0 59 36
59 70 0 62 -81 96 -114 48z m82 -10 c7 -7 12 -24 12 -38 0 -47 -37 -65 -72
-33 -34 31 -17 83 27 83 12 0 26 -5 33 -12z"/>
<path d="M3017 4713 c-2 -5 -2 -36 1 -70 4 -59 6 -63 29 -63 13 0 35 11 49 26
30 29 27 67 -8 97 -20 17 -63 23 -71 10z m65 -30 c22 -20 23 -41 1 -65 -32
-35 -53 -14 -53 55 0 32 23 36 52 10z"/>
<path d="M3170 4700 c-27 -27 -25 -66 5 -95 45 -46 105 -21 105 44 0 65 -65
96 -110 51z m78 -12 c7 -7 12 -24 12 -38 0 -47 -37 -65 -72 -33 -34 31 -17 83
27 83 12 0 26 -5 33 -12z"/>
<path d="M4450 4610 c19 -11 40 -19 45 -19 6 0 -6 8 -25 19 -19 11 -39 19 -45
19 -5 0 6 -8 25 -19z"/>
<path d="M4380 4530 c35 -24 54 -31 30 -11 -14 11 -29 21 -35 21 -5 0 -3 -5 5
-10z"/>
<path d="M4780 4455 c0 -5 5 -17 10 -25 5 -8 10 -10 10 -5 0 6 -5 17 -10 25
-5 8 -10 11 -10 5z"/>
<path d="M4310 4437 c0 -3 12 -12 26 -22 15 -9 23 -12 20 -6 -7 11 -46 35 -46
28z"/>
<path d="M4812 4360 c7 -10 14 -18 15 -16 6 6 -9 36 -18 36 -5 0 -4 -9 3 -20z"/>
<path d="M1612 4288 l-2 -78 75 0 75 0 -1 28 c-2 23 -2 24 -6 5 -4 -21 -10
-23 -68 -23 l-64 0 -4 73 -3 72 -2 -77z"/>
<path d="M1742 4300 c0 -19 2 -27 5 -17 2 9 2 25 0 35 -3 9 -5 1 -5 -18z"/>
<path d="M3990 4316 c0 -2 8 -10 18 -17 15 -13 16 -12 3 4 -13 16 -21 21 -21
13z"/>
<path d="M4729 4253 c-71 -77 -103 -113 -98 -113 3 0 38 36 78 80 79 87 93
109 20 33z"/>
<path d="M4951 4173 c34 -46 64 -83 66 -83 7 0 -60 90 -95 129 -18 20 -5 -1
29 -46z"/>
<path d="M4371 4186 c-32 -86 -33 -98 -12 -151 l19 -50 6 35 c33 181 34 195
21 209 -11 11 -16 4 -34 -43z"/>
<path d="M4560 4067 c0 -3 35 -26 78 -53 42 -26 87 -54 100 -62 12 -8 22 -12
22 -9 0 3 -35 26 -77 53 -43 26 -88 54 -100 62 -13 8 -23 12 -23 9z"/>
<path d="M3958 4019 c-21 -11 -64 -26 -95 -33 -44 -11 -50 -15 -27 -15 39 -1
111 24 144 49 32 25 25 24 -22 -1z"/>
<path d="M4390 3958 c0 -2 18 -49 39 -106 l39 -102 -91 -1 c-51 0 -119 -4
-151 -8 l-59 -7 -146 -150 c-306 -311 -376 -435 -351 -620 14 -111 48 -227
116 -399 60 -150 252 -545 266 -545 4 0 121 56 258 125 138 69 254 125 259
125 4 0 12 -87 16 -192 4 -106 9 -215 11 -243 25 -395 47 -701 49 -703 5 -5
633 33 638 38 3 3 -10 138 -28 300 -68 605 -147 1379 -170 1669 -24 306 -22
349 21 450 45 104 54 190 30 274 l-17 57 -49 -34 c-74 -51 -117 -55 -187 -17
-53 29 -64 31 -159 31 -106 0 -238 20 -298 45 -20 9 -36 14 -36 13z m182 -495
c-9 -94 -7 -1091 2 -1128 16 -63 -18 -9 -116 188 -123 246 -205 435 -220 511
-11 50 -10 56 16 100 25 44 163 222 213 276 13 14 40 48 60 77 21 29 41 53 45
53 4 0 4 -35 0 -77z"/>
<path d="M1622 3883 l3 -68 73 -3 72 -3 -2 63 -2 63 -3 -57 -4 -58 -64 0 -65
0 0 60 0 59 58 4 57 3 -63 2 -63 2 3 -67z"/>
<path d="M3960 3918 c-14 -5 -52 -16 -85 -24 l-60 -14 50 3 c28 2 70 13 95 25
46 21 46 29 0 10z"/>
<path d="M3955 3819 c-16 -5 -55 -14 -85 -19 l-55 -9 60 3 c33 2 76 11 95 19
39 17 31 20 -15 6z"/>
<path d="M1658 3543 c17 -2 47 -2 65 0 17 2 3 4 -33 4 -36 0 -50 -2 -32 -4z"/>
<path d="M1642 3473 l-2 -63 70 0 70 0 -2 63 -2 62 -3 -57 -4 -58 -59 0 -59 0
-4 58 -3 57 -2 -62z"/>
<path d="M1154 3318 c-26 -35 -58 -87 -73 -116 -23 -48 -27 -51 -32 -30 -5 18
-7 14 -8 -17 -1 -38 -34 -172 -45 -183 -3 -3 -8 4 -12 14 -16 49 -67 144 -94
175 -27 30 -26 27 9 -32 34 -57 71 -133 71 -145 0 -2 -11 1 -25 6 -14 5 -25 7
-25 4 0 -3 13 -10 30 -15 39 -14 41 -30 38 -279 l-3 -205 -38 80 c-21 44 -50
98 -65 120 -39 59 -152 205 -159 205 -6 0 -5 -2 46 -67 32 -42 32 -43 9 -44
-19 0 -17 -2 10 -12 18 -7 42 -27 54 -44 l20 -33 -34 5 c-31 5 -30 4 6 -8 37
-11 44 -21 98 -122 46 -89 58 -119 58 -157 l0 -47 -36 24 c-24 17 -51 25 -78
25 -23 0 -59 2 -81 5 -27 3 -32 2 -16 -3 22 -7 19 -9 -30 -25 -30 -9 -67 -21
-84 -27 l-30 -10 33 6 34 6 -47 -43 c-25 -23 -56 -57 -68 -73 -14 -21 -3 -14
34 22 51 49 121 102 134 102 3 0 3 -19 0 -42 l-4 -43 10 47 c10 43 15 49 48
58 70 19 110 11 159 -33 21 -19 22 -29 22 -144 l0 -123 -155 0 -155 0 0 -311
c0 -204 -3 -308 -10 -304 -6 4 -10 80 -10 196 0 119 -4 189 -10 189 -7 0 -10
-195 -10 -565 0 -370 3 -565 10 -565 6 0 10 115 10 325 0 179 3 326 8 326 11
2 39 2 185 1 l137 -2 0 -325 c0 -282 2 -325 15 -325 13 0 15 43 15 325 l0 325
145 0 145 0 0 -325 c0 -282 2 -325 15 -325 13 0 15 70 15 566 0 448 -3 565
-12 562 -10 -4 -14 -56 -18 -199 -5 -181 -6 -173 -8 119 l-2 312 -145 0 -145
0 0 180 c0 175 1 180 23 194 12 8 42 16 66 18 42 3 44 1 57 -32 l14 -35 -6 34
c-6 33 -6 34 22 27 50 -12 157 -67 219 -113 l60 -45 -50 47 c-27 26 -72 60
-100 76 -27 16 -43 29 -35 30 8 0 -12 7 -45 14 -82 19 -166 19 -191 0 -10 -8
-22 -15 -26 -15 -4 0 -7 90 -7 200 -1 111 -3 211 -7 224 -3 13 2 52 12 86 16
58 20 63 71 92 29 16 53 32 53 35 0 3 -21 -7 -47 -21 -25 -15 -47 -25 -49 -24
-6 7 48 124 61 134 8 6 12 14 9 17 -4 4 16 40 44 82 29 41 49 75 47 75 -3 0
-26 -28 -51 -62z"/>
<path d="M1650 3081 c0 -39 4 -72 8 -75 4 -2 6 27 4 65 l-4 69 60 0 c39 0 62
-4 65 -12 3 -8 6 -6 6 5 1 15 -9 17 -69 17 l-70 0 0 -69z"/>
<path d="M1788 3060 c-1 -28 0 -50 5 -50 4 0 7 23 7 50 0 65 -7 65 -12 0z"/>
<path d="M1703 3003 c15 -2 37 -2 50 0 12 2 0 4 -28 4 -27 0 -38 -2 -22 -4z"/>
<path d="M1320 2894 c-72 -31 -89 -31 -64 -2 10 13 -4 3 -32 -22 -28 -25 -70
-60 -93 -79 -41 -32 -119 -137 -109 -146 2 -3 19 17 37 45 61 94 184 177 296
198 28 5 41 10 30 11 -17 1 -18 3 -5 11 25 16 -2 9 -60 -16z"/>
<path d="M728 2793 c7 -3 16 -2 19 1 4 3 -2 6 -13 5 -11 0 -14 -3 -6 -6z"/>
<path d="M1660 2716 c0 -19 4 -37 8 -40 4 -2 6 11 4 30 l-4 34 66 0 66 0 0
-65 0 -65 -59 0 c-57 0 -60 1 -64 28 -4 25 -4 25 -6 -5 l-1 -33 70 0 70 0 0
75 0 75 -75 0 -75 0 0 -34z"/>
<path d="M1171 2404 c0 -11 3 -14 6 -6 3 7 2 16 -1 19 -3 4 -6 -2 -5 -13z"/>
<path d="M1331 2384 c0 -11 3 -14 6 -6 3 7 2 16 -1 19 -3 4 -6 -2 -5 -13z"/>
<path d="M1341 2344 c0 -11 3 -14 6 -6 3 7 2 16 -1 19 -3 4 -6 -2 -5 -13z"/>
<path d="M4259 1968 c-15 -13 -39 -40 -54 -60 l-27 -37 -50 39 c-54 44 -85 55
-117 45 -30 -9 -29 -60 2 -79 45 -30 115 -42 217 -38 40 2 51 5 40 12 -13 9
-13 11 0 20 8 5 20 10 26 10 23 0 56 48 52 76 -2 24 -8 29 -33 32 -20 2 -39
-5 -56 -20z m79 -11 c5 -26 -16 -47 -76 -74 -69 -30 -77 -29 -55 8 42 73 122
113 131 66z m-238 -37 c14 -10 36 -30 50 -45 l25 -27 -50 7 c-64 9 -119 35
-123 59 -8 39 46 42 98 6z"/>
<path d="M4115 1806 c-28 -13 -25 -13 35 -8 82 6 114 21 45 21 -27 0 -63 -6
-80 -13z"/>
<path d="M4310 1659 c-146 -78 -269 -146 -275 -152 -11 -11 133 64 388 200
133 72 169 94 155 93 -2 0 -122 -64 -268 -141z"/>
<path d="M4123 1778 c-24 -4 -51 -12 -60 -17 -14 -9 -12 -10 12 -5 17 2 57 8
90 12 47 6 54 9 30 13 -16 3 -49 1 -72 -3z"/>
<path d="M4060 1734 l-35 -14 40 5 c22 3 57 5 78 5 23 0 36 4 32 10 -9 14 -74
11 -115 -6z"/>
<path d="M4060 1596 c0 -3 9 -10 20 -16 11 -6 20 -8 20 -6 0 3 -9 10 -20 16
-11 6 -20 8 -20 6z"/>
<path d="M4590 1094 c-20 -24 -1 -64 47 -99 23 -16 42 -34 42 -40 1 -5 33 -20
71 -31 51 -16 67 -18 59 -8 -9 12 -4 14 29 14 81 0 124 42 84 82 -26 27 -70
19 -145 -26 l-55 -34 -54 35 c-62 40 -82 66 -73 94 14 43 70 6 114 -76 14 -25
19 -31 15 -15 -14 56 -67 120 -100 120 -12 0 -27 -7 -34 -16z m321 -84 c18 0
9 -39 -13 -54 -24 -17 -114 -22 -136 -7 -25 15 93 76 126 65 8 -2 18 -4 23 -4z"/>
<path d="M4678 914 c29 -7 62 -19 73 -25 12 -6 23 -8 26 -6 11 11 -78 47 -114
46 -37 0 -37 -1 15 -15z"/>
<path d="M4645 891 c33 -10 68 -22 78 -26 9 -4 17 -4 17 -1 0 14 -86 46 -120
45 -31 0 -29 -2 25 -18z"/>
<path d="M4564 883 c10 -3 43 -13 73 -24 29 -10 51 -13 47 -8 -11 18 -71 39
-106 38 -20 -1 -25 -3 -14 -6z"/>
<path d="M5146 864 c-32 -31 -14 -84 29 -84 29 0 45 19 45 52 0 42 -45 62 -74
32z"/>
<path d="M4493 786 c10 -8 25 -23 33 -33 14 -17 14 -16 4 4 -6 13 -20 27 -33
33 -20 10 -21 10 -4 -4z"/>
<path d="M5038 733 c18 -2 45 -2 60 0 15 2 0 4 -33 4 -33 0 -45 -2 -27 -4z"/>
<path d="M4725 715 c-77 -6 -115 -12 -85 -12 30 -1 125 5 210 12 91 7 126 12
85 12 -38 0 -133 -5 -210 -12z"/>
<path d="M4498 693 c12 -2 32 -2 45 0 12 2 2 4 -23 4 -25 0 -35 -2 -22 -4z"/>
</g>
</svg>
